<svg width="12" height="7" viewBox="0 0 12 7" fill="none" xmlns="http://www.w3.org/2000/svg">
<path d="M0.159842 6.00374L5.61411 0.171063C5.66477 0.116833 5.72492 0.0738119 5.79114 0.0444593C5.85735 0.0151066 5.92832 -5.30803e-07 6 -5.24537e-07C6.07168 -5.1827e-07 6.14265 0.0151066 6.20887 0.0444593C6.27508 0.073812 6.33524 0.116833 6.38589 0.171063L11.8402 6.00375C11.9425 6.11319 12 6.26163 12 6.41641C12 6.57119 11.9425 6.71963 11.8402 6.82907C11.7378 6.93851 11.599 7 11.4543 7C11.3095 7 11.1707 6.93851 11.0684 6.82907L6 1.40832L0.931621 6.82907C0.880945 6.88326 0.820785 6.92625 0.754573 6.95558C0.688362 6.9849 0.617397 7 0.545732 7C0.474065 7 0.4031 6.9849 0.336889 6.95558C0.270679 6.92625 0.210517 6.88326 0.159842 6.82907C0.109166 6.77488 0.0689678 6.71054 0.041543 6.63974C0.0141173 6.56893 9.97994e-07 6.49304 1.00469e-06 6.41641C1.01139e-06 6.33977 0.0141173 6.26388 0.0415431 6.19308C0.0689679 6.12227 0.109166 6.05794 0.159842 6.00374Z" fill="#2DB7A8"/>
</svg>
