<svg width="18" height="18" viewBox="0 0 18 18" fill="none" xmlns="http://www.w3.org/2000/svg">
<path d="M17.1099 11.6177L13.0614 9.80351L13.0502 9.79835C12.8401 9.70846 12.6108 9.67238 12.3832 9.69339C12.1555 9.7144 11.9367 9.79183 11.7466 9.91867C11.7242 9.93346 11.7027 9.94952 11.6821 9.96679L9.59039 11.75C8.26523 11.1063 6.89711 9.74851 6.25344 8.44054L8.03922 6.31703C8.05641 6.29554 8.07273 6.27406 8.0882 6.25085C8.21232 6.06119 8.28763 5.84379 8.30742 5.61799C8.32721 5.39219 8.29087 5.165 8.20164 4.95663V4.94632L6.38234 0.890931C6.26439 0.618737 6.06156 0.391991 5.80414 0.244543C5.54673 0.097094 5.24853 0.036851 4.95406 0.0728064C3.78958 0.226039 2.7207 0.79792 1.94705 1.68164C1.1734 2.56536 0.747895 3.70048 0.75 4.87499C0.75 11.6984 6.30156 17.25 13.125 17.25C14.2995 17.2521 15.4346 16.8266 16.3184 16.0529C17.2021 15.2793 17.774 14.2104 17.9272 13.0459C17.9632 12.7516 17.9031 12.4534 17.7558 12.196C17.6085 11.9386 17.382 11.7357 17.1099 11.6177ZM13.125 15.875C10.2086 15.8718 7.41255 14.7119 5.35034 12.6497C3.28813 10.5874 2.12818 7.7914 2.125 4.87499C2.12177 4.0358 2.42411 3.22413 2.97555 2.59155C3.527 1.95898 4.28985 1.54875 5.12164 1.43749C5.1213 1.44092 5.1213 1.44438 5.12164 1.44781L6.92633 5.48687L5.15 7.61296C5.13197 7.63371 5.11559 7.65583 5.10102 7.67913C4.97169 7.87758 4.89583 8.10607 4.88077 8.34245C4.86571 8.57884 4.91198 8.8151 5.01508 9.02835C5.79367 10.6208 7.39813 12.2132 9.00773 12.9909C9.22255 13.0931 9.46018 13.1377 9.69742 13.1206C9.93466 13.1034 10.1634 13.025 10.3612 12.893C10.3833 12.8781 10.4045 12.862 10.4248 12.8448L12.514 11.0625L16.553 12.8715H16.5625C16.4526 13.7044 16.043 14.4688 15.4103 15.0216C14.7776 15.5745 13.9652 15.8778 13.125 15.875Z" fill="#2DB7A8"/>
</svg>
