<svg width="40" height="40" viewBox="0 0 40 40" fill="none" xmlns="http://www.w3.org/2000/svg">
<circle cx="20" cy="20" r="20" fill="#D9D9D9"/>
<path d="M21.625 9.62504C21.625 10.106 21.4159 10.5383 21.0833 10.8362V12.875H26.5C27.362 12.875 28.1886 13.2174 28.7981 13.8269C29.4076 14.4364 29.75 15.2631 29.75 16.125V26.9584C29.75 27.8203 29.4076 28.647 28.7981 29.2565C28.1886 29.866 27.362 30.2084 26.5 30.2084H13.5C12.638 30.2084 11.8114 29.866 11.2019 29.2565C10.5924 28.647 10.25 27.8203 10.25 26.9584V16.125C10.25 15.2631 10.5924 14.4364 11.2019 13.8269C11.8114 13.2174 12.638 12.875 13.5 12.875H18.9167V10.8362C18.7146 10.6555 18.561 10.4271 18.4698 10.1719C18.3786 9.91662 18.3526 9.6426 18.3944 9.37477C18.4361 9.10694 18.5442 8.85381 18.7088 8.63842C18.8733 8.42303 19.0892 8.25224 19.3366 8.14158C19.5841 8.03092 19.8553 7.98392 20.1255 8.00485C20.3958 8.02579 20.6565 8.114 20.8839 8.26144C21.1114 8.40889 21.2983 8.61089 21.4278 8.84905C21.5572 9.08722 21.625 9.35398 21.625 9.62504ZM13.5 15.0417C13.2127 15.0417 12.9371 15.1558 12.734 15.359C12.5308 15.5622 12.4167 15.8377 12.4167 16.125V26.9584C12.4167 27.2457 12.5308 27.5212 12.734 27.7244C12.9371 27.9276 13.2127 28.0417 13.5 28.0417H26.5C26.7873 28.0417 27.0629 27.9276 27.266 27.7244C27.4692 27.5212 27.5833 27.2457 27.5833 26.9584V16.125C27.5833 15.8377 27.4692 15.5622 27.266 15.359C27.0629 15.1558 26.7873 15.0417 26.5 15.0417H18.9167H13.5ZM9.16667 18.2917H7V24.7917H9.16667V18.2917ZM30.8333 18.2917H33V24.7917H30.8333V18.2917ZM16.75 23.1667C17.181 23.1667 17.5943 22.9955 17.899 22.6908C18.2038 22.386 18.375 21.9727 18.375 21.5417C18.375 21.1107 18.2038 20.6974 17.899 20.3927C17.5943 20.0879 17.181 19.9167 16.75 19.9167C16.319 19.9167 15.9057 20.0879 15.601 20.3927C15.2962 20.6974 15.125 21.1107 15.125 21.5417C15.125 21.9727 15.2962 22.386 15.601 22.6908C15.9057 22.9955 16.319 23.1667 16.75 23.1667ZM23.25 23.1667C23.681 23.1667 24.0943 22.9955 24.399 22.6908C24.7038 22.386 24.875 21.9727 24.875 21.5417C24.875 21.1107 24.7038 20.6974 24.399 20.3927C24.0943 20.0879 23.681 19.9167 23.25 19.9167C22.819 19.9167 22.4057 20.0879 22.101 20.3927C21.7962 20.6974 21.625 21.1107 21.625 21.5417C21.625 21.9727 21.7962 22.386 22.101 22.6908C22.4057 22.9955 22.819 23.1667 23.25 23.1667Z" fill="#033733"/>
</svg>
