<svg width="16" height="14" viewBox="0 0 16 14" fill="none" xmlns="http://www.w3.org/2000/svg">
<path d="M14.5 13H1.5C0.67 13 0 12.33 0 11.5V2.5C0 1.67 0.67 1 1.5 1H14.5C15.33 1 16 1.67 16 2.5V11.5C16 12.33 15.33 13 14.5 13ZM1.5 2C1.22 2 1 2.22 1 2.5V11.5C1 11.78 1.22 12 1.5 12H14.5C14.78 12 15 11.78 15 11.5V2.5C15 2.22 14.78 2 14.5 2H1.5Z" fill="#2DB7A8"/>
<path d="M8.00001 8.95963C7.30001 8.95963 6.66001 8.67963 6.18001 8.16963L0.930015 2.58963C0.740015 2.38963 0.750015 2.06963 0.950015 1.87963C1.15001 1.68963 1.47001 1.69963 1.66001 1.89963L6.91001 7.47963C7.48001 8.08963 8.52002 8.08963 9.09002 7.47963L14.34 1.90963C14.53 1.70963 14.85 1.69963 15.05 1.88963C15.25 2.07963 15.26 2.39963 15.07 2.59963L9.82001 8.17963C9.34002 8.68963 8.70001 8.96963 8.00001 8.96963V8.95963Z" fill="#2DB7A8"/>
</svg>
