<svg width="24" height="24" viewBox="0 0 24 24" fill="none" xmlns="http://www.w3.org/2000/svg">
<path d="M12 24C10.3484 24 8.79289 23.6844 7.33333 23.0533C5.87378 22.4222 4.60267 21.5644 3.52 20.48C2.43556 19.3982 1.57778 18.1271 0.946667 16.6667C0.315556 15.2071 0 13.6516 0 12C0 10.344 0.315556 8.78711 0.946667 7.32933C1.57867 5.87156 2.43644 4.60133 3.52 3.51867C4.60178 2.436 5.87289 1.57911 7.33333 0.948C8.79289 0.316 10.3484 0 12 0C13.656 0 15.2129 0.315556 16.6707 0.946667C18.1284 1.57867 19.3987 2.43644 20.4813 3.52C21.564 4.60267 22.4209 5.87244 23.052 7.32933C23.684 8.78711 24 10.344 24 12C24 13.6516 23.6844 15.2071 23.0533 16.6667C22.4222 18.1262 21.5644 19.3973 20.48 20.48C19.3973 21.5636 18.1276 22.4213 16.6707 23.0533C15.2129 23.6844 13.656 24 12 24ZM12 22.6773C12.7822 21.672 13.4276 20.6849 13.936 19.716C14.4436 18.7471 14.8564 17.6627 15.1747 16.4627H8.82533C9.17733 17.7302 9.59867 18.8484 10.0893 19.8173C10.58 20.7862 11.2169 21.7396 12 22.6773ZM10.3027 22.4773C9.68044 21.744 9.11244 20.8373 8.59867 19.7573C8.08489 18.6782 7.70267 17.5796 7.452 16.4613H2.33733C3.10178 18.12 4.18489 19.48 5.58667 20.5413C6.98933 21.6027 8.56089 22.248 10.3013 22.4773M13.696 22.4773C15.4364 22.248 17.008 21.6027 18.4107 20.5413C19.8133 19.48 20.8964 18.12 21.66 16.4613H16.548C16.2102 17.5964 15.7849 18.704 15.272 19.784C14.7582 20.8631 14.2329 21.7609 13.696 22.4773ZM1.79333 15.128H7.17333C7.072 14.5813 7.00089 14.0484 6.96 13.5293C6.91733 13.0102 6.896 12.5004 6.896 12C6.896 11.4996 6.91689 10.9898 6.95867 10.4707C7.00044 9.95156 7.07156 9.41822 7.172 8.87067H1.796C1.65111 9.33289 1.53778 9.83644 1.456 10.3813C1.37422 10.9262 1.33333 11.4658 1.33333 12C1.33333 12.5351 1.37378 13.0747 1.45467 13.6187C1.53644 14.1636 1.64978 14.6667 1.79467 15.128M8.508 15.128H15.492C15.5933 14.5813 15.6644 14.0569 15.7053 13.5547C15.748 13.0533 15.7693 12.5351 15.7693 12C15.7693 11.4649 15.7484 10.9467 15.7067 10.4453C15.6649 9.94311 15.5938 9.41867 15.4933 8.872H8.50667C8.40622 9.41867 8.33511 9.94311 8.29333 10.4453C8.25156 10.9467 8.23067 11.4649 8.23067 12C8.23067 12.5351 8.25156 13.0533 8.29333 13.5547C8.33511 14.0569 8.40756 14.5813 8.508 15.128ZM16.8267 15.128H22.2053C22.3502 14.6658 22.4636 14.1627 22.5453 13.6187C22.6271 13.0747 22.6676 12.5351 22.6667 12C22.6667 11.4649 22.6262 10.9253 22.5453 10.3813C22.4636 9.83644 22.3502 9.33333 22.2053 8.872H16.8253C16.9267 9.41867 16.9978 9.95156 17.0387 10.4707C17.0813 10.9898 17.1027 11.4996 17.1027 12C17.1027 12.5004 17.0818 13.0102 17.04 13.5293C16.9982 14.0484 16.9271 14.5818 16.8267 15.1293M16.5493 7.53867H21.6613C20.88 5.84622 19.8098 4.48622 18.4507 3.45867C17.0907 2.43111 15.5062 1.77778 13.6973 1.49867C14.3196 2.31644 14.8791 3.25244 15.376 4.30667C15.872 5.36 16.2631 6.43733 16.5493 7.53867ZM8.82533 7.53867H15.1747C14.8227 6.28711 14.3884 5.15556 13.872 4.144C13.3564 3.13156 12.7324 2.19111 12 1.32267C11.2684 2.19111 10.6444 3.13156 10.128 4.144C9.61244 5.15556 9.17822 6.28711 8.82533 7.53867ZM2.33867 7.53867H7.45067C7.73689 6.43733 8.128 5.36 8.624 4.30667C9.12089 3.25244 9.68044 2.316 10.3027 1.49733C8.47689 1.77733 6.88844 2.43511 5.53733 3.47067C4.18622 4.50711 3.11956 5.86267 2.33733 7.53733" fill="#2DB7A8"/>
</svg>
